<?xml version="1.0" encoding="utf-8"?>
<!-- Generator: Adobe Illustrator 21.1.0, SVG Export Plug-In . SVG Version: 6.00 Build 0)  -->
<svg version="1.1" id="Layer_1" xmlns="http://www.w3.org/2000/svg" xmlns:xlink="http://www.w3.org/1999/xlink" x="0px" y="0px"
	 viewBox="0 0 1488 328.6" style="enable-background:new 0 0 1488 328.6;" xml:space="preserve">
<style type="text/css">
	.st0{clip-path:url(#SVGID_2_);fill:#DB4437;}
	.st1{clip-path:url(#SVGID_4_);}
	.st2{fill:#4285F4;}
	.st3{opacity:0.2;clip-path:url(#SVGID_6_);fill:#1A237E;enable-background:new    ;}
	.st4{clip-path:url(#SVGID_8_);}
	.st5{opacity:0.2;fill:#FFFFFF;enable-background:new    ;}
	.st6{opacity:0.2;clip-path:url(#SVGID_10_);fill:#3E2723;enable-background:new    ;}
	.st7{opacity:0.2;clip-path:url(#SVGID_12_);fill:#FFFFFF;enable-background:new    ;}
	.st8{clip-path:url(#SVGID_14_);fill:url(#SVGID_15_);}
	.st9{clip-path:url(#SVGID_17_);fill:#FFC107;}
	.st10{clip-path:url(#SVGID_19_);}
	.st11{fill:#0F9D58;}
	.st12{opacity:0.2;clip-path:url(#SVGID_21_);fill:#FFFFFF;enable-background:new    ;}
	.st13{opacity:0.2;clip-path:url(#SVGID_23_);fill:#FFFFFF;enable-background:new    ;}
	.st14{opacity:0.2;clip-path:url(#SVGID_25_);fill:#263238;enable-background:new    ;}
	.st15{clip-path:url(#SVGID_27_);fill:url(#SVGID_28_);}
	.st16{fill:#FFFFFF;}
	.st17{fill:none;}
</style>
<g>
	<g transform="matrix(.3858 0 0 .3858 -1.9553 457.01)">
		<g>
			<g>
				<g>
					<g>
						<defs>
							<path id="SVGID_1_" d="M507.3-1168H241.4L28.9-801.1c-13.6,23.3-13.6,52.5,0,76.1l212.5,366.9h265.9L272.8-762.9L507.3-1168z
								"/>
						</defs>
						<clipPath id="SVGID_2_">
							<use xlink:href="#SVGID_1_"  style="overflow:visible;"/>
						</clipPath>
						<polygon class="st0" points="241.4,-1168 139.9,-992.5 272.8,-763.1 507.3,-1168 						"/>
					</g>
				</g>
			</g>
		</g>
		<g>
			<g>
				<g>
					<g>
						<defs>
							<path id="SVGID_3_" d="M507.3-1168H241.4L28.9-801.1c-13.6,23.3-13.6,52.5,0,76.1l212.5,366.9h265.9L272.8-762.9L507.3-1168z
								"/>
						</defs>
						<clipPath id="SVGID_4_">
							<use xlink:href="#SVGID_3_"  style="overflow:visible;"/>
						</clipPath>
						<g class="st1">
							<path class="st2" d="M28.9-801.3c-13.6,23.3-13.6,52.5,0,76.1l212.5,366.9h265.9L139.9-992.5L28.9-801.3z"/>
						</g>
					</g>
				</g>
			</g>
		</g>
		<g>
			<g>
				<g>
					<g>
						<defs>
							<path id="SVGID_5_" d="M507.3-1168H241.4L28.9-801.1c-13.6,23.3-13.6,52.5,0,76.1l212.5,366.9h265.9L272.8-762.9L507.3-1168z
								"/>
						</defs>
						<clipPath id="SVGID_6_">
							<use xlink:href="#SVGID_5_"  style="overflow:visible;"/>
						</clipPath>
						<path class="st3" d="M28.9-731.5c-6.3-10.8-9.4-22.9-9.8-34.8c-0.6,14,2.5,28.6,9.8,41.1l212.5,366.9h265.9l-3.6-6.3H241.4
							L28.9-731.5z"/>
					</g>
				</g>
			</g>
		</g>
		<g>
			<g>
				<g>
					<g>
						<defs>
							<path id="SVGID_7_" d="M507.3-1168H241.4L28.9-801.1c-13.6,23.3-13.6,52.5,0,76.1l212.5,366.9h265.9L272.8-762.9L507.3-1168z
								"/>
						</defs>
						<clipPath id="SVGID_8_">
							<use xlink:href="#SVGID_7_"  style="overflow:visible;"/>
						</clipPath>
						<g class="st4">
							<polygon class="st5" points="141.5,-989.3 241.4,-1161.8 503.7,-1161.8 507.3,-1168 241.4,-1168 139.9,-992.5 							"/>
						</g>
					</g>
				</g>
			</g>
		</g>
		<g>
			<g>
				<g>
					<g>
						<defs>
							<path id="SVGID_9_" d="M507.3-1168H241.4L28.9-801.1c-13.6,23.3-13.6,52.5,0,76.1l212.5,366.9h265.9L272.8-762.9L507.3-1168z
								"/>
						</defs>
						<clipPath id="SVGID_10_">
							<use xlink:href="#SVGID_9_"  style="overflow:visible;"/>
						</clipPath>
						<polygon class="st6" points="503.7,-1168 270.7,-766.3 272.8,-763.1 507.3,-1168 						"/>
					</g>
				</g>
			</g>
		</g>
		<g>
			<g>
				<g>
					<g>
						<defs>
							<path id="SVGID_11_" d="M507.3-1168H241.4L28.9-801.1c-13.6,23.3-13.6,52.5,0,76.1l212.5,366.9h265.9L272.8-762.9L507.3-1168
								z"/>
						</defs>
						<clipPath id="SVGID_12_">
							<use xlink:href="#SVGID_11_"  style="overflow:visible;"/>
						</clipPath>
						<path class="st7" d="M28.9-795l111-191.8l363.8,628.6h3.6L139.9-992.4l-111,191.2c-7.3,12.5-10.5,27.1-9.8,41.1
							C19.1-772.1,22.6-784,28.9-795z"/>
					</g>
				</g>
			</g>
		</g>
		<g>
			<g>
				<g>
					<g>
						<defs>
							<path id="SVGID_13_" d="M507.3-1168H241.4L28.9-801.1c-13.6,23.3-13.6,52.5,0,76.1l212.5,366.9h265.9L272.8-762.9L507.3-1168
								z"/>
						</defs>
						<clipPath id="SVGID_14_">
							<use xlink:href="#SVGID_13_"  style="overflow:visible;"/>
						</clipPath>
						
							<radialGradient id="SVGID_15_" cx="344423.125" cy="419971.4688" r="258.0688" gradientTransform="matrix(-8.655215e-03 0 0 8.619482e-03 3968.0935 -4951.3569)" gradientUnits="userSpaceOnUse">
							<stop  offset="0" style="stop-color:#3E2723;stop-opacity:0.2"/>
							<stop  offset="1" style="stop-color:#3E2723;stop-opacity:2.000000e-02"/>
						</radialGradient>
						<polygon class="st8" points="139.9,-992.5 272.8,-763.1 308.4,-824.6 						"/>
					</g>
				</g>
			</g>
		</g>
	</g>
	<g transform="matrix(.3858 0 0 .3858 -1.9553 457.01)">
		<g>
			<g>
				<g>
					<g>
						<defs>
							<path id="SVGID_16_" d="M1126.9-801.3l-212.5-366.9H648.5L883-763.3L647.9-358.2h265.9l212.5-366.9
								C1140.5-748.6,1140.5-777.7,1126.9-801.3z"/>
						</defs>
						<clipPath id="SVGID_17_">
							<use xlink:href="#SVGID_16_"  style="overflow:visible;"/>
						</clipPath>
						<polygon class="st9" points="913.8,-358.3 1016,-533.4 882.4,-763.1 647.9,-358.3 						"/>
					</g>
				</g>
			</g>
		</g>
		<g>
			<g>
				<g>
					<g>
						<defs>
							<path id="SVGID_18_" d="M1126.9-801.3l-212.5-366.9H648.5L883-763.3L647.9-358.2h265.9l212.5-366.9
								C1140.5-748.6,1140.5-777.7,1126.9-801.3z"/>
						</defs>
						<clipPath id="SVGID_19_">
							<use xlink:href="#SVGID_18_"  style="overflow:visible;"/>
						</clipPath>
						<g class="st10">
							<path class="st11" d="M1126.9-725.2c13.6-23.3,13.6-52.5,0-76.1l-212.5-366.9H648.5l367.4,634.8L1126.9-725.2z"/>
						</g>
					</g>
				</g>
			</g>
		</g>
		<g>
			<g>
				<g>
					<g>
						<defs>
							<path id="SVGID_20_" d="M1126.9-801.3l-212.5-366.9H648.5L883-763.3L647.9-358.2h265.9l212.5-366.9
								C1140.5-748.6,1140.5-777.7,1126.9-801.3z"/>
						</defs>
						<clipPath id="SVGID_21_">
							<use xlink:href="#SVGID_20_"  style="overflow:visible;"/>
						</clipPath>
						<path class="st12" d="M1126.9-795c6.3,10.8,9.4,22.9,9.8,34.8c0.4-14-2.5-28.6-9.8-41.1l-212.5-366.9H648.5l3.6,6.3h262.1
							C914.4-1161.8,1126.9-795,1126.9-795z"/>
					</g>
				</g>
			</g>
		</g>
		<g>
			<g>
				<g>
					<g>
						<defs>
							<path id="SVGID_22_" d="M1126.9-801.3l-212.5-366.9H648.5L883-763.3L647.9-358.2h265.9l212.5-366.9
								C1140.5-748.6,1140.5-777.7,1126.9-801.3z"/>
						</defs>
						<clipPath id="SVGID_23_">
							<use xlink:href="#SVGID_22_"  style="overflow:visible;"/>
						</clipPath>
						<polygon class="st13" points="651.7,-358.3 884.5,-760 882.4,-763.1 647.9,-358.3 						"/>
					</g>
				</g>
			</g>
		</g>
		<g>
			<g>
				<g>
					<g>
						<defs>
							<path id="SVGID_24_" d="M1126.9-801.3l-212.5-366.9H648.5L883-763.3L647.9-358.2h265.9l212.5-366.9
								C1140.5-748.6,1140.5-777.7,1126.9-801.3z"/>
						</defs>
						<clipPath id="SVGID_25_">
							<use xlink:href="#SVGID_24_"  style="overflow:visible;"/>
						</clipPath>
						<path class="st14" d="M1126.9-731.5l-111,191.8l-364.3-628.6H648l367.2,634.8l111-191.8c7.3-12.5,10.5-27.1,9.8-41.1
							C1136.3-754.4,1133.2-742.3,1126.9-731.5z"/>
					</g>
				</g>
			</g>
		</g>
		<g>
			<g>
				<g>
					<g>
						<defs>
							<path id="SVGID_26_" d="M1126.9-801.3l-212.5-366.9H648.5L883-763.3L647.9-358.2h265.9l212.5-366.9
								C1140.5-748.6,1140.5-777.7,1126.9-801.3z"/>
						</defs>
						<clipPath id="SVGID_27_">
							<use xlink:href="#SVGID_26_"  style="overflow:visible;"/>
						</clipPath>
						
							<radialGradient id="SVGID_28_" cx="26045.1758" cy="-281529.9375" r="258.0688" gradientTransform="matrix(8.655215e-03 0 0 -8.619482e-03 1617.8147 -3313.7959)" gradientUnits="userSpaceOnUse">
							<stop  offset="0" style="stop-color:#BF360C;stop-opacity:0.2"/>
							<stop  offset="1" style="stop-color:#BF360C;stop-opacity:2.000000e-02"/>
						</radialGradient>
						<polygon class="st15" points="1015.3,-533.8 882.4,-763.1 846.8,-701.6 						"/>
					</g>
				</g>
			</g>
		</g>
	</g>
	<g>
		<path class="st16" d="M581.5,58.4c0,11.9-3.5,21.4-10.6,28.4c-7.9,8.4-18.4,12.6-31.3,12.6c-12.4,0-22.8-4.3-31.4-12.8
			S495.4,67.5,495.4,55s4.3-23.1,12.8-31.6c8.5-8.5,19-12.8,31.4-12.8c6.3,0,12.2,1.1,17.7,3.3s10.1,5.4,13.7,9.4l-7.8,7.8
			c-2.6-3.2-6-5.6-10.2-7.4s-8.6-2.7-13.4-2.7c-9.3,0-17.1,3.2-23.5,9.6c-6.3,6.5-9.5,14.6-9.5,24.4s3.2,17.9,9.5,24.4
			c6.4,6.4,14.3,9.6,23.5,9.6c8.5,0,15.5-2.4,21.2-7.1c5.6-4.8,8.9-11.3,9.7-19.6h-30.9V51.9h41.3C581.3,54.2,581.5,56.3,581.5,58.4
			z M588.9,68.3c0-9,2.8-16.4,8.4-22.2c5.7-5.9,12.9-8.8,21.5-8.8s15.8,2.9,21.4,8.8c5.7,5.9,8.6,13.3,8.6,22.2
			c0,9-2.9,16.4-8.6,22.2c-5.6,5.9-12.8,8.8-21.4,8.8c-8.6,0-15.8-2.9-21.5-8.8C591.8,84.7,588.9,77.3,588.9,68.3z M599.9,68.3
			c0,6.3,1.8,11.3,5.5,15.2c3.6,3.9,8.2,5.8,13.6,5.8c5.4,0,9.9-1.9,13.6-5.8c3.6-3.9,5.5-9,5.5-15.2s-1.8-11.2-5.5-15.1
			c-3.7-4-8.2-5.9-13.6-5.9c-5.3,0-9.8,2-13.6,5.9C601.7,57.1,599.9,62.2,599.9,68.3z M655.5,68.3c0-9,2.8-16.4,8.4-22.2
			c5.7-5.9,12.9-8.8,21.5-8.8s15.8,2.9,21.4,8.8c5.7,5.9,8.6,13.3,8.6,22.2c0,9-2.9,16.4-8.6,22.2c-5.6,5.9-12.8,8.8-21.4,8.8
			c-8.6,0-15.8-2.9-21.5-8.8C658.3,84.7,655.5,77.3,655.5,68.3z M666.5,68.3c0,6.3,1.8,11.3,5.5,15.2c3.6,3.9,8.2,5.8,13.6,5.8
			c5.4,0,9.9-1.9,13.6-5.8c3.6-3.9,5.5-9,5.5-15.2s-1.8-11.2-5.5-15.1c-3.7-4-8.2-5.9-13.6-5.9c-5.3,0-9.8,2-13.6,5.9
			C668.3,57.1,666.5,62.2,666.5,68.3z M751.2,125.1c-3.3,0-6.3-0.4-9.2-1.2c-2.9-0.8-5.5-2-7.8-3.5s-4.3-3.3-6-5.4s-2.9-4.4-3.8-6.9
			l10.3-4.3c1.2,3.4,3.2,6.1,6.2,8.2c2.9,2.1,6.3,3.1,10.2,3.1c5.9,0,10.6-1.8,13.9-5.4s5-8.5,5-14.7v-5.6h-0.5
			c-2.1,3.1-4.9,5.5-8.4,7.3s-7.4,2.7-11.5,2.7c-7.6,0-14.1-3-19.6-8.9c-5.4-6.1-8.1-13.5-8.1-22.1s2.7-16,8.1-22c5.5-6,12-9,19.6-9
			c4.1,0,7.9,0.9,11.5,2.7c3.5,1.8,6.3,4.2,8.4,7.3h0.5v-8.1h10.5V95c0,9.4-2.7,16.7-8,22C767.2,122.4,760.1,125.1,751.2,125.1z
			 M751.6,89.4c5.4,0,9.8-1.9,13.2-5.8c3.6-3.9,5.4-9,5.4-15.2c0-6.1-1.8-11.1-5.4-15.1c-3.5-4-7.9-5.9-13.2-5.9
			c-5.2,0-9.6,2-13.2,5.9c-3.6,4-5.4,9-5.4,15.1c0,6.2,1.8,11.2,5.4,15.1S746.4,89.4,751.6,89.4z M804.9,12.3v85.1H794V12.3H804.9z
			 M843.7,99.4c-8.6,0-15.6-2.9-21.2-8.8c-5.5-5.9-8.3-13.3-8.3-22.2s2.7-16.3,8.1-22.2c5.4-5.9,12.3-8.9,20.7-8.9
			c8.6,0,15.5,2.8,20.6,8.4s7.7,13.4,7.7,23.5l-0.1,1.2h-45.8c0.2,5.7,2.1,10.3,5.7,13.8c3.6,3.5,8,5.2,13.1,5.2
			c7,0,12.4-3.5,16.4-10.5l9.7,4.8c-2.6,4.9-6.2,8.8-10.9,11.5C854.9,98,849.6,99.4,843.7,99.4z M826.3,61.3h33.4
			c-0.3-4-2-7.4-4.9-10c-3-2.7-7-4-11.9-4c-4.1,0-7.7,1.3-10.6,3.8C829.2,53.6,827.2,57.1,826.3,61.3z"/>
		<g>
			<path class="st16" d="M501.5,281.8V134.6h45c22.5,0,40.5,6.8,54.1,20.3c13.6,13.6,20.4,31.3,20.4,53.2c0,22.1-6.8,39.8-20.4,53.3
				C587,275,569,281.8,546.5,281.8H501.5z M520.4,152.7v111h26.1c17.1,0,30.6-4.9,40.5-14.7s14.8-23.4,14.8-40.8
				c0-17.3-4.9-30.8-14.8-40.7c-9.9-9.9-23.4-14.8-40.5-14.8L520.4,152.7L520.4,152.7z"/>
			<path class="st16" d="M682.3,285.1c-14.8,0-27-5.1-36.6-15.2s-14.4-22.9-14.4-38.4c0-15.3,4.7-28.1,14-38.3s21.2-15.3,35.8-15.3
				c14.9,0,26.8,4.8,35.7,14.5c8.8,9.7,13.3,23.2,13.3,40.6l-0.2,2.1h-79.1c0.3,9.9,3.6,17.8,9.9,23.8c6.3,6,13.8,9,22.6,9
				c12.1,0,21.5-6,28.4-18.1l16.8,8.2c-4.5,8.5-10.8,15.1-18.8,19.9C701.5,282.7,692.5,285.1,682.3,285.1z M652.1,219.3h57.7
				c-0.5-7-3.4-12.8-8.5-17.4c-5.1-4.6-12-6.9-20.7-6.9c-7.1,0-13.3,2.2-18.4,6.6C657.2,206,653.8,211.9,652.1,219.3z"/>
			<path class="st16" d="M794.1,281.8h-18.9l-40.7-100.7H755l29.6,78.1h0.4l30-78.1h20.1L794.1,281.8z"/>
			<path class="st16" d="M889.7,285.1c-14.8,0-27-5.1-36.6-15.2s-14.4-22.9-14.4-38.4c0-15.3,4.7-28.1,14-38.3s21.2-15.3,35.8-15.3
				c14.9,0,26.8,4.8,35.7,14.5c8.8,9.7,13.3,23.2,13.3,40.6l-0.2,2.1H858c0.3,9.9,3.6,17.8,9.9,23.8c6.3,6,13.8,9,22.6,9
				c12.1,0,21.5-6,28.4-18.1l16.9,8.2c-4.5,8.5-10.8,15.1-18.8,19.9C908.9,282.7,899.8,285.1,889.7,285.1z M859.5,219.3h57.7
				c-0.5-7-3.4-12.8-8.5-17.4c-5.1-4.6-12-6.9-20.7-6.9c-7.1,0-13.3,2.2-18.4,6.6C864.5,206,861.1,211.9,859.5,219.3z"/>
			<path class="st16" d="M973.5,134.6v147.1h-18.9V134.6H973.5z"/>
			<path class="st16" d="M989.7,231.4c0-15.5,4.9-28.3,14.6-38.4c9.9-10.1,22.3-15.2,37.2-15.2s27.3,5.1,37,15.2
				c9.9,10.1,14.8,22.9,14.8,38.4c0,15.6-4.9,28.4-14.8,38.4c-9.7,10.1-22.1,15.2-37,15.2s-27.3-5.1-37.2-15.2
				C994.6,259.7,989.7,246.9,989.7,231.4z M1008.6,231.4c0,10.8,3.1,19.6,9.5,26.3c6.3,6.7,14.1,10.1,23.4,10.1s17.1-3.4,23.4-10.1
				c6.3-6.7,9.5-15.5,9.5-26.3c0-10.7-3.2-19.4-9.5-26.1c-6.4-6.8-14.2-10.3-23.4-10.3c-9.2,0-17,3.4-23.4,10.3
				C1011.8,212,1008.6,220.7,1008.6,231.4z"/>
			<path class="st16" d="M1161.9,285.1c-7.4,0-14.1-1.6-20.2-4.7s-10.8-7.3-14.1-12.5h-0.8l0.8,14v44.4h-18.9V181.1h18.1v14h0.8
				c3.3-5.2,8-9.4,14.1-12.5s12.8-4.7,20.2-4.7c13.3,0,24.5,5.2,33.7,15.6c9.5,10.6,14.2,23.2,14.2,38c0,14.9-4.7,27.6-14.2,38
				C1186.5,279.9,1175.2,285.1,1161.9,285.1z M1158.9,267.8c9,0,16.6-3.4,22.8-10.3c6.2-6.7,9.2-15.4,9.2-26.1
				c0-10.5-3.1-19.2-9.2-26.1c-6.2-6.8-13.8-10.3-22.8-10.3c-9.2,0-16.8,3.4-23,10.3c-6,6.9-9,15.6-9,26.1c0,10.7,3,19.5,9,26.3
				C1142,264.4,1149.7,267.8,1158.9,267.8z"/>
			<path class="st16" d="M1272.3,285.1c-14.8,0-27-5.1-36.6-15.2s-14.4-22.9-14.4-38.4c0-15.3,4.7-28.1,14-38.3s21.2-15.3,35.8-15.3
				c14.9,0,26.8,4.8,35.7,14.5c8.8,9.7,13.3,23.2,13.3,40.6l-0.2,2.1h-79.1c0.3,9.9,3.6,17.8,9.9,23.8c6.3,6,13.8,9,22.6,9
				c12.1,0,21.5-6,28.4-18.1l16.9,8.2c-4.5,8.5-10.8,15.1-18.8,19.9C1291.5,282.7,1282.4,285.1,1272.3,285.1z M1242.1,219.3h57.7
				c-0.5-7-3.4-12.8-8.5-17.4c-5.1-4.6-12-6.9-20.7-6.9c-7.1,0-13.3,2.2-18.4,6.6C1247.1,206,1243.7,211.9,1242.1,219.3z"/>
			<path class="st16" d="M1356.1,281.8h-18.9V181.1h18.1v16.4h0.8c1.9-5.3,5.9-9.9,11.8-13.7c6-3.8,11.8-5.7,17.6-5.7
				c5.5,0,10.1,0.8,14,2.5l-5.8,18.3c-2.3-1-6-1.4-11.1-1.4c-7.1,0-13.3,2.9-18.6,8.6c-5.3,5.8-7.9,12.5-7.9,20.1V281.8z"/>
			<path class="st16" d="M1484.8,253.8c0,8.8-3.8,16.2-11.5,22.2s-17.3,9-29,9c-10.1,0-19-2.6-26.7-7.9s-13.2-12.2-16.4-20.9
				l16.9-7.2c2.5,6,6.1,10.7,10.8,14.1c4.7,3.4,9.9,5,15.5,5c6,0,11.1-1.3,15.1-3.9s6.1-5.7,6.1-9.2c0-6.4-4.9-11.2-14.8-14.2
				l-17.3-4.3c-19.6-4.9-29.4-14.4-29.4-28.4c0-9.2,3.7-16.5,11.2-22.1c7.5-5.5,17-8.3,28.7-8.3c8.9,0,17,2.1,24.1,6.4
				c7.2,4.2,12.2,9.9,15.1,17.1l-16.8,7c-1.9-4.2-5-7.6-9.4-10c-4.3-2.4-9.1-3.6-14.5-3.6c-4.9,0-9.3,1.2-13.3,3.7s-5.9,5.5-5.9,9
				c0,5.8,5.4,9.9,16.2,12.3l15.2,3.9C1474.8,228.6,1484.8,238.6,1484.8,253.8z"/>
		</g>
	</g>
	<rect x="1000.8" y="265.8" class="st17" width="0.2" height="13.4"/>
</g>
</svg>
