<?xml version="1.0" encoding="utf-8"?>
<!-- Generator: Adobe Illustrator 21.1.0, SVG Export Plug-In . SVG Version: 6.00 Build 0)  -->
<svg version="1.1" id="Layer_4" xmlns="http://www.w3.org/2000/svg" xmlns:xlink="http://www.w3.org/1999/xlink" x="0px" y="0px"
	 viewBox="0 0 134.1 32" style="enable-background:new 0 0 134.1 32;" xml:space="preserve">
<style type="text/css">
	.st0{fill:#FFFFFF;}
	.st1{fill:#FFFFFF;enable-background:new    ;}
</style>
<text transform="matrix(1 0 0 1 420.9448 297.6399)" class="st0" style="font-family:'MyriadPro-Regular'; font-size:12px;">ffffff</text>
<g>
	<g id="XMLID_261_">
		<path id="XMLID_259_" class="st0" d="M5.2,0H0l14.8,25.6l2.6-4.5L5.2,0z"/>
		<path id="XMLID_258_" class="st0" d="M19.3,14.6L10.9,0H5.8l11.9,20.6l1.7-2.9c0.3-0.5,0.4-1,0.4-1.6C19.8,15.6,19.6,15,19.3,14.6
			z"/>
		<path id="XMLID_257_" class="st0" d="M9,16.7L0.2,32h5.1l6.3-10.9L9,16.7z"/>
		<path id="XMLID_256_" class="st0" d="M11.9,21.6L5.9,32h5.2l3.4-5.9L11.9,21.6z"/>
	</g>
	<path class="st0" d="M41.9,8.2c0,1.8-0.5,3.1-1.6,4.3c-1.2,1.2-2.7,1.9-4.7,1.9c-1.8,0-3.3-0.6-4.7-1.9S29,9.6,29,7.7
		s0.6-3.4,1.9-4.8c1.3-1.2,2.8-1.8,4.7-1.8c0.9,0,1.8,0.2,2.6,0.5s1.5,0.8,2,1.4l-1.1,1.1c-0.8-1-2-1.5-3.4-1.5
		c-1.3,0-2.5,0.5-3.4,1.4c-1,0.9-1.4,2.1-1.4,3.7s0.5,2.7,1.4,3.7c1,0.9,2.1,1.4,3.4,1.4c1.4,0,2.6-0.5,3.5-1.4
		c0.6-0.6,1-1.5,1.1-2.5h-4.7V7.3h6.2C41.8,7.6,41.9,7.9,41.9,8.2z M43.5,14.1V1.3h3.9c1.9,0,3.5,0.6,4.7,1.7
		c1.2,1.2,1.7,2.7,1.7,4.6s-0.6,3.4-1.7,4.6c-1.2,1.2-2.7,1.7-4.7,1.7h-3.9V14.1z M45.2,12.4h2.2c1.4,0,2.6-0.4,3.4-1.2
		c0.8-0.8,1.3-2,1.3-3.5S51.8,5,50.9,4.1c-0.8-0.8-2-1.3-3.4-1.3h-2.2L45.2,12.4L45.2,12.4z M67.7,8.2c0,1.8-0.5,3.1-1.6,4.3
		c-1.2,1.2-2.7,1.9-4.7,1.9c-1.8,0-3.3-0.6-4.7-1.9s-1.9-2.8-1.9-4.8s0.6-3.4,1.9-4.8C58.1,1.6,59.6,1,61.4,1c0.9,0,1.8,0.2,2.6,0.5
		c0.8,0.3,1.5,0.8,2,1.4L65,4c-0.8-1-2-1.5-3.4-1.5c-1.3,0-2.5,0.5-3.4,1.4c-1,0.9-1.4,2.1-1.4,3.7s0.5,2.7,1.4,3.7
		c1,0.9,2.1,1.4,3.4,1.4c1.4,0,2.6-0.5,3.5-1.4c0.6-0.6,1-1.5,1.1-2.5h-4.7V7.3h6.2V8.2z M73.6,14.1V1.3h3.9c1.9,0,3.5,0.6,4.7,1.7
		c1.2,1.2,1.7,2.7,1.7,4.6s-0.6,3.4-1.7,4.6c-1.2,1.2-2.7,1.7-4.7,1.7h-3.9V14.1z M75.2,12.4h2.2c1.4,0,2.6-0.4,3.4-1.2
		s1.3-2,1.3-3.5S81.8,5,80.9,4.1c-0.8-0.8-2-1.3-3.4-1.3h-2.2C75.2,2.8,75.2,12.4,75.2,12.4z M89.3,14.4C88,14.4,87,14,86,13
		c-0.8-0.9-1.2-2-1.2-3.3c0-1.2,0.4-2.3,1.2-3.2c0.8-0.9,1.8-1.3,3-1.3c1.3,0,2.3,0.4,3.1,1.2c0.8,0.8,1.1,1.9,1.1,3.3V10h-6.9
		c0,0.9,0.3,1.5,0.9,2c0.5,0.5,1.2,0.8,1.9,0.8c1.2,0,1.9-0.5,2.3-1.5l1.4,0.6c-0.3,0.7-0.7,1.2-1.4,1.7
		C91,14.1,90.2,14.4,89.3,14.4z M91.6,8.7c0-0.5-0.3-1-0.7-1.4c-0.4-0.4-1-0.7-1.8-0.7c-0.6,0-1.1,0.2-1.5,0.6s-0.7,0.9-0.9,1.5
		H91.6z M96.8,14.1l-3.5-8.7h1.8l2.5,6.7l2.6-6.7h1.7l-3.5,8.7H96.8z M104.6,14.1H103V1.3h7.4v1.5h-5.8V7h5.2v1.5h-5.2V14.1z
		 M115.3,14.4c-1.3,0-2.3-0.4-3.2-1.3c-0.8-0.9-1.2-2-1.2-3.3c0-1.2,0.4-2.3,1.2-3.2c0.8-0.9,1.8-1.3,3-1.3c1.3,0,2.3,0.4,3.1,1.2
		c0.8,0.8,1.1,1.9,1.1,3.3V10h-6.9c0,0.9,0.3,1.5,0.9,2c0.5,0.5,1.2,0.8,1.9,0.8c1.2,0,1.9-0.5,2.3-1.5l1.4,0.6
		c-0.3,0.7-0.7,1.2-1.4,1.7C117,14.1,116.3,14.4,115.3,14.4z M117.6,8.7c0-0.5-0.3-1-0.7-1.4c-0.4-0.4-1-0.7-1.8-0.7
		c-0.6,0-1.1,0.2-1.5,0.6s-0.7,0.9-0.9,1.5H117.6z M123.7,14.4c-1,0-1.7-0.2-2.4-0.7c-0.6-0.5-1.1-1-1.4-1.8l1.4-0.6
		c0.5,1.1,1.2,1.6,2.3,1.6c0.5,0,0.9-0.1,1.2-0.3c0.3-0.2,0.5-0.5,0.5-0.9c0-0.6-0.4-0.9-1.2-1.1l-1.7-0.4c-0.5-0.1-1.1-0.4-1.6-0.8
		s-0.8-1-0.8-1.7c0-0.8,0.3-1.4,1-1.8c0.7-0.5,1.5-0.7,2.4-0.7c0.8,0,1.4,0.2,2,0.5s1,0.8,1.3,1.5l-1.4,0.6c-0.3-0.8-1-1.1-2-1.1
		c-0.5,0-0.9,0.1-1.2,0.3c-0.3,0.2-0.5,0.5-0.5,0.8c0,0.5,0.4,0.8,1.1,1l1.7,0.4c0.8,0.2,1.4,0.5,1.8,1s0.6,1,0.6,1.5
		c0,0.8-0.3,1.4-0.9,1.9C125.5,14.1,124.7,14.4,123.7,14.4z M132,14.2c-0.9,0-1.6-0.2-2.1-0.7s-0.7-1.2-0.7-2V6.9h-1.5V5.3h1.5V2.7
		h1.6v2.6h2.1v1.5h-2.1v4.5c0,0.9,0.4,1.4,1.2,1.4c0.3,0,0.5,0,0.7-0.1l0.6,1.4C133,14.1,132.5,14.2,132,14.2z"/>
	<path class="st1" d="M31.5,28.3h-1.4V17.6h1.4v4.6h5.3v-4.6h1.4v10.7h-1.4v-4.8h-5.3V28.3z M46.5,20.9l-4.6,10.5h-1.4l1.7-3.7
		l-3-6.8h1.5l2.2,5.3h0l2.1-5.3H46.5z M50.2,28.5c-1,0-1.8-0.4-2.5-1.1c-0.7-0.8-1-1.7-1-2.8s0.3-2,1-2.8c0.7-0.8,1.5-1.1,2.5-1.1
		c0.5,0,1,0.1,1.5,0.3c0.4,0.2,0.8,0.5,1,0.9h0.1l-0.1-1v-3.4H54v10.7h-1.3v-1h-0.1c-0.2,0.4-0.6,0.7-1,0.9S50.7,28.5,50.2,28.5z
		 M50.4,27.2c0.7,0,1.2-0.2,1.7-0.7c0.4-0.5,0.7-1.1,0.7-1.9c0-0.8-0.2-1.4-0.7-1.9c-0.4-0.5-1-0.7-1.7-0.7c-0.7,0-1.2,0.2-1.7,0.7
		c-0.4,0.5-0.7,1.1-0.7,1.9c0,0.8,0.2,1.4,0.7,1.9C49.2,27,49.7,27.2,50.4,27.2z M58.9,28.5c-1.1,0-2-0.4-2.7-1.1
		c-0.7-0.7-1-1.7-1-2.8c0-1.1,0.3-2,1-2.8c0.7-0.7,1.5-1.1,2.6-1.1c1.1,0,1.9,0.4,2.6,1.1c0.6,0.7,1,1.7,1,2.9l0,0.1h-5.7
		c0,0.7,0.3,1.3,0.7,1.7s1,0.7,1.6,0.7c0.9,0,1.6-0.4,2.1-1.3l1.2,0.6c-0.3,0.6-0.8,1.1-1.4,1.4C60.3,28.3,59.6,28.5,58.9,28.5z
		 M56.7,23.7h4.2c0-0.5-0.2-0.9-0.6-1.3c-0.4-0.3-0.9-0.5-1.5-0.5c-0.5,0-1,0.2-1.3,0.5S56.8,23.2,56.7,23.7z M65,28.3h-1.4v-7.3
		h1.3v1.2H65c0.1-0.4,0.4-0.7,0.9-1s0.9-0.4,1.3-0.4c0.4,0,0.7,0.1,1,0.2l-0.4,1.3c-0.2-0.1-0.4-0.1-0.8-0.1c-0.5,0-1,0.2-1.4,0.6
		S65,23.7,65,24.2V28.3z M71.5,20.7c1,0,1.8,0.3,2.4,0.8s0.9,1.3,0.9,2.2v4.5h-1.3v-1h-0.1c-0.6,0.8-1.3,1.3-2.3,1.3
		c-0.8,0-1.5-0.2-2-0.7s-0.8-1.1-0.8-1.8c0-0.8,0.3-1.4,0.9-1.8c0.6-0.4,1.3-0.7,2.3-0.7c0.8,0,1.5,0.1,2,0.4v-0.3
		c0-0.5-0.2-0.9-0.6-1.2c-0.4-0.3-0.8-0.5-1.3-0.5c-0.8,0-1.4,0.3-1.8,1l-1.2-0.8C69.2,21.2,70.2,20.7,71.5,20.7z M69.7,26
		c0,0.4,0.2,0.7,0.5,0.9c0.3,0.2,0.7,0.4,1.1,0.4c0.6,0,1.1-0.2,1.5-0.6c0.5-0.4,0.7-0.9,0.7-1.5c-0.4-0.3-1-0.5-1.8-0.5
		c-0.6,0-1,0.1-1.4,0.4S69.7,25.6,69.7,26z M80.2,28.5c-0.5,0-1-0.1-1.5-0.3s-0.8-0.5-1-0.9h-0.1v1h-1.3V17.6h1.4v3.4l-0.1,1h0.1
		c0.2-0.4,0.6-0.7,1-0.9c0.4-0.2,0.9-0.3,1.5-0.3c1,0,1.8,0.4,2.4,1.1c0.7,0.8,1,1.7,1,2.8c0,1.1-0.3,2-1,2.8
		C82,28.1,81.2,28.5,80.2,28.5z M80,27.2c0.7,0,1.2-0.2,1.7-0.7c0.4-0.5,0.7-1.1,0.7-1.9c0-0.8-0.2-1.4-0.7-1.9S80.6,22,80,22
		c-0.7,0-1.2,0.2-1.7,0.7c-0.4,0.5-0.7,1.1-0.7,1.9c0,0.8,0.2,1.4,0.7,1.9C78.7,27,79.3,27.2,80,27.2z M87.7,20.7
		c1,0,1.8,0.3,2.4,0.8s0.9,1.3,0.9,2.2v4.5h-1.3v-1h-0.1c-0.6,0.8-1.3,1.3-2.3,1.3c-0.8,0-1.5-0.2-2-0.7s-0.8-1.1-0.8-1.8
		c0-0.8,0.3-1.4,0.9-1.8c0.6-0.4,1.3-0.7,2.3-0.7c0.8,0,1.5,0.1,2,0.4v-0.3c0-0.5-0.2-0.9-0.6-1.2c-0.4-0.3-0.8-0.5-1.3-0.5
		c-0.8,0-1.4,0.3-1.8,1l-1.2-0.8C85.4,21.2,86.4,20.7,87.7,20.7z M85.9,26c0,0.4,0.2,0.7,0.5,0.9c0.3,0.2,0.7,0.4,1.1,0.4
		c0.6,0,1.1-0.2,1.5-0.6c0.5-0.4,0.7-0.9,0.7-1.5c-0.4-0.3-1-0.5-1.8-0.5c-0.6,0-1,0.1-1.4,0.4S85.9,25.6,85.9,26z M95.5,28.5
		c-1,0-1.8-0.4-2.5-1.1c-0.7-0.8-1-1.7-1-2.8s0.3-2,1-2.8c0.7-0.8,1.5-1.1,2.5-1.1c0.5,0,1,0.1,1.5,0.3c0.4,0.2,0.8,0.5,1,0.9h0.1
		l-0.1-1v-3.4h1.4v10.7h-1.3v-1H98c-0.2,0.4-0.6,0.7-1,0.9S96,28.5,95.5,28.5z M95.7,27.2c0.7,0,1.2-0.2,1.7-0.7
		c0.4-0.5,0.7-1.1,0.7-1.9c0-0.8-0.2-1.4-0.7-1.9c-0.4-0.5-1-0.7-1.7-0.7c-0.7,0-1.2,0.2-1.7,0.7s-0.7,1.1-0.7,1.9
		c0,0.8,0.2,1.4,0.7,1.9C94.5,27,95.1,27.2,95.7,27.2z M110.6,26.9v1.3h-6.5v-1.4l2.6-2.7c0.9-0.9,1.5-1.6,1.8-2
		c0.3-0.5,0.5-0.9,0.5-1.4c0-0.4-0.2-0.8-0.5-1.1c-0.3-0.3-0.8-0.5-1.3-0.5c-0.5,0-0.9,0.1-1.2,0.4s-0.6,0.6-0.7,1l-1.3-0.5
		c0.2-0.6,0.6-1.2,1.1-1.6c0.6-0.4,1.2-0.6,2-0.6c0.9,0,1.7,0.3,2.3,0.8c0.6,0.6,0.9,1.3,0.9,2.1c0,1-0.5,2-1.6,3.2l-3,3H110.6z
		 M111.9,23.2c0-1.6,0.4-2.8,1.1-3.8c0.8-1,1.8-1.5,3-1.5s2.2,0.5,3,1.5c0.8,1,1.1,2.3,1.1,3.8c0,1.5-0.4,2.8-1.1,3.8
		c-0.8,1-1.8,1.5-3,1.5s-2.2-0.5-3-1.5C112.3,26,111.9,24.7,111.9,23.2z M118.7,23.2c0-1.2-0.2-2.1-0.7-2.9c-0.5-0.8-1.1-1.1-2-1.1
		s-1.5,0.4-2,1.1c-0.5,0.8-0.7,1.7-0.7,2.9c0,1.2,0.2,2.1,0.7,2.9c0.5,0.7,1.1,1.1,2,1.1s1.5-0.4,2-1.1
		C118.5,25.3,118.7,24.3,118.7,23.2z M125.1,18.1v10.2h-1.4v-8.5l-2,0.9l-0.5-1.2l3-1.4H125.1z M133.9,25.4c0,0.9-0.3,1.6-1,2.2
		c-0.7,0.6-1.5,0.9-2.5,0.9s-1.8-0.3-2.5-0.9c-0.7-0.6-1-1.3-1-2.2c0-0.5,0.1-1,0.4-1.5s0.7-0.8,1.2-1.1v-0.1c-0.4-0.3-0.7-0.6-1-1
		c-0.2-0.4-0.4-0.8-0.4-1.2c0-0.8,0.3-1.5,0.9-2.1c0.6-0.5,1.3-0.8,2.2-0.8s1.7,0.3,2.2,0.8c0.6,0.6,0.9,1.2,0.9,2.1
		c0,0.4-0.1,0.8-0.4,1.2c-0.2,0.4-0.6,0.7-1,1v0.1c0.5,0.3,0.9,0.6,1.2,1.1C133.7,24.4,133.9,24.9,133.9,25.4z M128.3,25.4
		c0,0.3,0.1,0.5,0.2,0.7s0.2,0.4,0.4,0.6c0.2,0.2,0.4,0.3,0.6,0.4c0.2,0.1,0.5,0.1,0.8,0.1c0.3,0,0.6,0,0.8-0.1
		c0.2-0.1,0.5-0.2,0.6-0.4c0.2-0.2,0.3-0.4,0.4-0.6s0.2-0.5,0.2-0.7c0-0.5-0.2-0.9-0.6-1.3c-0.4-0.3-0.9-0.5-1.5-0.5
		c-0.6,0-1.1,0.2-1.5,0.5C128.5,24.4,128.3,24.9,128.3,25.4z M128.7,20.7c0,0.5,0.2,0.9,0.5,1.2c0.3,0.3,0.7,0.4,1.2,0.4
		s0.9-0.1,1.2-0.4c0.3-0.3,0.5-0.7,0.5-1.2c0-0.5-0.2-0.9-0.5-1.1c-0.3-0.3-0.7-0.4-1.2-0.4s-0.9,0.1-1.2,0.4S128.7,20.2,128.7,20.7
		z"/>
</g>
</svg>
