<?xml version="1.0" encoding="utf-8"?>
<!-- Generator: Adobe Illustrator 21.1.0, SVG Export Plug-In . SVG Version: 6.00 Build 0)  -->
<svg version="1.1" id="Layer_4" xmlns="http://www.w3.org/2000/svg" xmlns:xlink="http://www.w3.org/1999/xlink" x="0px" y="0px"
	 viewBox="0 0 2181 279.3" style="enable-background:new 0 0 2181 279.3;" xml:space="preserve">
<style type="text/css">
	.st0{fill:#FFFFFF;}
</style>
<path id="XMLID_3_" class="st0" d="M439.5,129.5c0,26.9-7.9,48.4-23.9,64.4c-18.1,19.1-41.6,28.6-70.7,28.6
	c-27.8,0-51.4-9.6-71-28.9c-19.4-19.3-29.2-43.2-29.2-71.7s9.8-52.4,29.2-71.7c19.4-19.3,43.1-28.9,71-28.9c13.8,0,27,2.7,39.6,8.1
	s22.6,12.6,30.2,21.5l-17,17c-12.8-15.4-30.4-23-52.9-23c-20.3,0-37.9,7.1-52.6,21.4c-14.8,14.3-22.2,32.7-22.2,55.6
	s7.4,41.3,22.2,55.6c14.8,14.3,32.4,21.4,52.6,21.4c21.5,0,39.4-7.2,53.9-21.5c9.3-9.3,14.7-22.3,16.1-39h-70V115H438
	C439,120,439.5,124.9,439.5,129.5L439.5,129.5z"/>
<path id="XMLID_20_" class="st0" d="M464.4,218V25.3h58.9c29.6,0,53.2,8.9,71.1,26.7c17.7,17.8,26.6,41,26.6,69.6
	s-8.9,51.7-26.6,69.6C576.6,209.1,553,218,523.3,218H464.4z M489.2,194.3h34.2c22.2,0,39.8-6.4,52.9-19.1
	c12.9-12.7,19.5-30.5,19.5-53.5c0-22.8-6.5-40.5-19.5-53.4s-30.7-19.3-52.9-19.3h-34.2V194.3z"/>
<path id="XMLID_23_" class="st0" d="M831.6,129.5c0,26.9-7.9,48.4-23.9,64.4c-18.1,19.1-41.6,28.6-70.7,28.6
	c-27.8,0-51.4-9.6-71-28.9c-19.4-19.3-29.2-43.2-29.2-71.7s9.8-52.4,29.2-71.7s43.1-28.9,71-28.9c13.8,0,27,2.7,39.6,8.1
	c12.6,5.4,22.6,12.6,30.2,21.5l-17,17c-12.8-15.4-30.4-23-52.9-23c-20.3,0-37.9,7.1-52.6,21.4S662,98.8,662,121.7
	s7.4,41.3,22.2,55.6c14.8,14.3,32.4,21.4,52.6,21.4c21.5,0,39.4-7.2,53.9-21.5c9.3-9.3,14.7-22.3,16.1-39h-70V115h93.3
	C831.1,120,831.6,124.9,831.6,129.5L831.6,129.5z"/>
<g>
	<path class="st0" d="M949.1,218h-24.8V24.8h24.8v82.8h96.6V24.8h24.8V218h-24.8v-87.2h-96.6V218z"/>
	<path class="st0" d="M1220.6,85.8l-82.8,190.5h-25.6l30.8-66.7l-54.6-123.8h27l39.4,95h0.5l38.3-95
		C1193.6,85.8,1220.6,85.8,1220.6,85.8z"/>
	<path class="st0" d="M1286.6,222.3c-17.2,0-32.1-6.8-44.6-20.5c-12.2-13.8-18.3-30.5-18.3-49.9s6.1-36,18.3-49.9
		c12.5-13.7,27.2-20.5,44.6-20.5c9.8,0,18.6,2.1,26.6,6.2c8.1,4.2,14.2,9.6,18.4,16.5h1.1l-1.1-18.3V24.8h24.8V218h-23.7v-18.3h-1.1
		c-4.3,6.8-10.5,12.3-18.4,16.5C1305.2,220.2,1296.4,222.3,1286.6,222.3z M1290.7,199.7c12.2,0,22.2-4.4,29.9-13.2
		c8.1-8.8,12.1-20.3,12.1-34.6c0-13.8-4-25.3-12.1-34.3c-7.9-9-18-13.4-29.9-13.4c-11.8,0-21.9,4.5-29.9,13.4
		c-8.1,9-12.1,20.4-12.1,34.3c0,14,4,25.4,12.1,34.3C1268.8,195.2,1278.8,199.7,1290.7,199.7z"/>
	<path class="st0" d="M1444.8,222.3c-19.4,0-35.4-6.6-48-19.9c-12.6-13.3-18.9-30.2-18.9-50.4c0-20.1,6.1-36.9,18.3-50.3
		c12.2-13.4,27.8-20.1,46.9-20.1c19.7,0,35.2,6.4,46.8,19.1s17.3,30.4,17.3,53.2l-0.2,2.7h-103.8c0.4,12.9,4.6,23.3,12.9,31.3
		c8.3,7.9,18.2,11.8,29.7,11.8c15.9,0,28.2-7.9,37.2-23.7l22.1,10.7c-6,11.1-14.2,19.9-24.7,26.1
		C1470,219.3,1458.1,222.3,1444.8,222.3z M1405.1,136h75.8c-0.7-9.2-4.4-16.7-11.2-22.8c-6.7-6-15.8-9-27.1-9
		c-9.4,0-17.3,2.9-24.2,8.7C1411.7,118.6,1407.3,126.3,1405.1,136z"/>
	<path class="st0" d="M1554.8,218H1530V85.8h23.7v21.6h1.1c2.6-7,7.7-12.9,15.5-18c7.8-4.9,15.5-7.4,23.1-7.4
		c7.2,0,13.3,1.1,18.3,3.3l-7.6,24.1c-3.1-1.2-7.9-1.8-14.5-1.8c-9.4,0-17.5,3.8-24.4,11.4c-7,7.6-10.4,16.4-10.4,26.5V218z"/>
	<path class="st0" d="M1672.7,81.5c18.3,0,32.9,4.9,43.5,14.7c10.6,9.8,15.9,23.2,15.9,40.3v81.5h-23.7v-18.3h-1.1
		c-10.3,15.1-23.9,22.7-41,22.7c-14.5,0-26.7-4.3-36.5-12.9c-9.8-8.7-14.7-19.4-14.7-32.4c0-13.7,5.1-24.5,15.5-32.6
		s24.2-12.1,41.4-12.1c14.8,0,26.9,2.7,36.4,8.1v-5.6c0-8.7-3.4-16-10.3-22c-6.8-6-14.9-9-24.1-9c-13.8,0-24.8,5.9-33,17.6
		l-21.7-13.9C1631.4,90.2,1649.1,81.5,1672.7,81.5z M1640.6,177.6c0,6.5,2.7,11.8,8.2,16.2c5.5,4.3,12,6.5,19.3,6.5
		c10.4,0,19.8-3.9,28-11.6c8.2-7.7,12.3-16.9,12.3-27.2c-7.7-6.1-18.6-9.2-32.4-9.2c-10,0-18.4,2.4-25.3,7.3
		C1644,164.3,1640.6,170.4,1640.6,177.6z"/>
	<path class="st0" d="M1830,222.3c-9.8,0-18.6-2.1-26.6-6.2c-8.1-4.2-14.2-9.6-18.4-16.5h-1.1v18.3h-23.7V24.8h24.8v60.9l-1.1,18.3
		h1.1c4.3-6.8,10.5-12.3,18.4-16.5c8.1-4.2,16.9-6.2,26.6-6.2c17.5,0,32.2,6.8,44.2,20.5c12.5,13.8,18.6,30.5,18.6,49.9
		c0,19.7-6.2,36.3-18.6,49.9C1862.2,215.5,1847.4,222.3,1830,222.3z M1825.9,199.7c11.8,0,21.9-4.5,29.9-13.4
		c8.1-8.8,12.1-20.3,12.1-34.3c0-13.8-4-25.3-12.1-34.3c-8.1-9-18.1-13.4-29.9-13.4c-12.1,0-22.1,4.5-30.2,13.4
		c-7.9,9-11.8,20.4-11.8,34.3c0,14,3.9,25.5,11.8,34.6C1803.8,195.3,1813.8,199.7,1825.9,199.7z"/>
	<path class="st0" d="M1965.8,81.5c18.3,0,32.9,4.9,43.5,14.7c10.6,9.8,15.9,23.2,15.9,40.3v81.5h-23.7v-18.3h-1.1
		c-10.3,15.1-23.9,22.7-41,22.7c-14.5,0-26.7-4.3-36.5-12.9c-9.8-8.7-14.7-19.4-14.7-32.4c0-13.7,5.1-24.5,15.5-32.6
		s24.2-12.1,41.4-12.1c14.8,0,26.9,2.7,36.4,8.1v-5.6c0-8.7-3.4-16-10.3-22c-6.8-6-14.9-9-24.1-9c-13.8,0-24.8,5.9-33,17.6
		l-21.9-13.8C1924.4,90.2,1942.2,81.5,1965.8,81.5z M1933.6,177.6c0,6.5,2.7,11.8,8.2,16.2c5.5,4.3,12,6.5,19.3,6.5
		c10.4,0,19.8-3.9,28-11.6s12.3-16.9,12.3-27.2c-7.7-6.1-18.6-9.2-32.4-9.2c-10,0-18.4,2.4-25.3,7.3
		C1936.9,164.3,1933.6,170.4,1933.6,177.6z"/>
	<path class="st0" d="M2107,222.3c-17.2,0-32.1-6.8-44.6-20.5c-12.2-13.8-18.3-30.5-18.3-49.9s6.1-36,18.3-49.9
		c12.5-13.7,27.2-20.5,44.6-20.5c9.8,0,18.6,2.1,26.6,6.2c8.1,4.2,14.2,9.6,18.4,16.5h1.1l-1.1-18.3V24.8h24.8V218h-23.7v-18.3h-1.1
		c-4.3,6.8-10.5,12.3-18.4,16.5C2125.6,220.2,2116.8,222.3,2107,222.3z M2111.1,199.7c12.2,0,22.2-4.4,29.9-13.2
		c8.1-8.8,12.1-20.3,12.1-34.6c0-13.8-4-25.3-12.1-34.3c-7.9-9-18-13.4-29.9-13.4c-11.8,0-21.9,4.5-29.9,13.4
		c-8.1,9-12.1,20.4-12.1,34.3c0,14,4,25.4,12.1,34.3C2089.2,195.2,2099.2,199.7,2111.1,199.7z"/>
</g>
<g id="XMLID_261_">
	<path id="XMLID_259_" class="st0" d="M39.4,2H0l112.7,195.4l19.8-34.2L39.4,2z"/>
	<path id="XMLID_258_" class="st0" d="M147.6,113.1L83.4,2H44.1l90.7,157.3l12.8-22.2c2.1-3.4,3.4-7.6,3.4-12
		C150.9,120.7,149.7,116.7,147.6,113.1L147.6,113.1z"/>
	<path id="XMLID_257_" class="st0" d="M68.8,129.1L1.1,246.2h39.4l48-83L68.8,129.1z"/>
	<path id="XMLID_256_" class="st0" d="M90.7,167.2l-45.6,79h39.3l26-44.9L90.7,167.2L90.7,167.2z"/>
</g>
</svg>
