<?xml version="1.0" encoding="utf-8"?>
<!-- Generator: Adobe Illustrator 21.1.0, SVG Export Plug-In . SVG Version: 6.00 Build 0)  -->
<svg version="1.1" id="Layer_4" xmlns="http://www.w3.org/2000/svg" xmlns:xlink="http://www.w3.org/1999/xlink" x="0px" y="0px"
	 viewBox="0 0 1790 224.6" style="enable-background:new 0 0 1790 224.6;" xml:space="preserve">
<style type="text/css">
	.st0{fill:#757575;}
</style>
<path id="XMLID_3_" class="st0" d="M359.9,104.4c0,22-6.5,39.6-19.6,52.7c-14.8,15.6-34.1,23.4-57.9,23.4
	c-22.8,0-42.1-7.9-58.1-23.7c-15.9-15.8-23.9-35.4-23.9-58.7s8-42.9,23.9-58.7s35.3-23.7,58.1-23.7c11.3,0,22.1,2.2,32.4,6.6
	c10.3,4.4,18.5,10.3,24.7,17.6l-13.9,13.9C315.1,41.2,300.7,35,282.3,35c-16.6,0-31,5.8-43.1,17.5S221,79.3,221,98
	s6.1,33.8,18.2,45.5s26.5,17.5,43.1,17.5c17.6,0,32.3-5.9,44.1-17.6c7.6-7.6,12-18.3,13.2-31.9h-57.3v-19h76.4
	C359.5,96.6,359.9,100.6,359.9,104.4L359.9,104.4z"/>
<path id="XMLID_20_" class="st0" d="M380.3,176.9V19.1h48.2c24.2,0,43.6,7.3,58.2,21.9c14.5,14.6,21.8,33.6,21.8,57
	s-7.3,42.3-21.8,57c-14.5,14.6-33.9,21.9-58.2,21.9H380.3z M400.6,157.5h28c18.2,0,32.6-5.2,43.3-15.6c10.6-10.4,16-25,16-43.8
	c0-18.7-5.3-33.2-16-43.7s-25.1-15.8-43.3-15.8h-28V157.5z"/>
<path id="XMLID_23_" class="st0" d="M681,104.4c0,22-6.5,39.6-19.6,52.7c-14.8,15.6-34.1,23.4-57.9,23.4c-22.8,0-42.1-7.9-58.1-23.7
	c-15.9-15.8-23.9-35.4-23.9-58.7s8-42.9,23.9-58.7s35.3-23.7,58.1-23.7c11.3,0,22.1,2.2,32.4,6.6c10.3,4.4,18.5,10.3,24.7,17.6
	l-13.9,13.9C636.2,41.2,621.8,35,603.4,35c-16.6,0-31,5.8-43.1,17.5S542.1,79.3,542.1,98s6.1,33.8,18.2,45.5s26.5,17.5,43.1,17.5
	c17.6,0,32.3-5.9,44.1-17.6c7.6-7.6,12-18.3,13.2-31.9h-57.3v-19h76.4C680.6,96.6,681,100.6,681,104.4L681,104.4z"/>
<g>
	<path class="st0" d="M777.2,176.9h-20.3V18.7h20.3v67.8h79.1V18.7h20.3v158.2h-20.3v-71.4h-79.1V176.9z"/>
	<path class="st0" d="M999.5,68.6l-67.8,156h-21l25.2-54.6L891.2,68.6h22.1l32.3,77.8h0.4l31.4-77.8H999.5z"/>
	<path class="st0" d="M1053.6,180.4c-14.1,0-26.3-5.6-36.5-16.8c-10-11.3-15-25-15-40.9s5-29.5,15-40.9
		c10.2-11.2,22.3-16.8,36.5-16.8c8,0,15.2,1.7,21.8,5.1c6.6,3.4,11.6,7.9,15.1,13.5h0.9l-0.9-15V18.7h20.3v158.2h-19.4v-15h-0.9
		c-3.5,5.6-8.6,10.1-15.1,13.5C1068.8,178.7,1061.6,180.4,1053.6,180.4z M1056.9,161.9c10,0,18.2-3.6,24.5-10.8
		c6.6-7.2,9.9-16.6,9.9-28.3c0-11.3-3.3-20.7-9.9-28.1c-6.5-7.4-14.7-11-24.5-11c-9.7,0-17.9,3.7-24.5,11
		c-6.6,7.4-9.9,16.7-9.9,28.1c0,11.5,3.3,20.8,9.9,28.1C1039,158.2,1047.2,161.9,1056.9,161.9z"/>
	<path class="st0" d="M1183.1,180.4c-15.9,0-29-5.4-39.3-16.3c-10.3-10.9-15.5-24.7-15.5-41.3c0-16.5,5-30.2,15-41.2
		c10-11,22.8-16.5,38.4-16.5c16.1,0,28.8,5.2,38.3,15.6c9.5,10.4,14.2,24.9,14.2,43.6l-0.2,2.2H1149c0.3,10.6,3.8,19.1,10.6,25.6
		c6.8,6.5,14.9,9.7,24.3,9.7c13,0,23.1-6.5,30.5-19.4l18.1,8.8c-4.9,9.1-11.6,16.3-20.2,21.4C1203.7,177.9,1194,180.4,1183.1,180.4z
		 M1150.6,109.7h62.1c-0.6-7.5-3.6-13.7-9.2-18.7c-5.5-4.9-12.9-7.4-22.2-7.4c-7.7,0-14.2,2.4-19.8,7.1
		C1156,95.5,1152.4,101.8,1150.6,109.7z"/>
	<path class="st0" d="M1273.2,176.9h-20.3V68.6h19.4v17.7h0.9c2.1-5.7,6.3-10.6,12.7-14.7c6.4-4,12.7-6.1,18.9-6.1
		c5.9,0,10.9,0.9,15,2.7l-6.2,19.7c-2.5-1-6.5-1.5-11.9-1.5c-7.7,0-14.3,3.1-20,9.3c-5.7,6.2-8.5,13.4-8.5,21.7V176.9z"/>
	<path class="st0" d="M1369.7,65.1c15,0,26.9,4,35.6,12c8.7,8,13,19,13,33v66.7h-19.4v-15h-0.9c-8.4,12.4-19.6,18.6-33.6,18.6
		c-11.9,0-21.9-3.5-29.9-10.6c-8-7.1-12-15.9-12-26.5c0-11.2,4.2-20.1,12.7-26.7c8.5-6.6,19.8-9.9,33.9-9.9c12.1,0,22,2.2,29.8,6.6
		v-4.6c0-7.1-2.8-13.1-8.4-18c-5.6-4.9-12.2-7.4-19.7-7.4c-11.3,0-20.3,4.8-27,14.4L1326,86.3C1335.9,72.2,1350.4,65.1,1369.7,65.1z
		 M1343.4,143.8c0,5.3,2.2,9.7,6.7,13.3c4.5,3.5,9.8,5.3,15.8,5.3c8.5,0,16.2-3.2,22.9-9.5c6.7-6.3,10.1-13.8,10.1-22.3
		c-6.3-5-15.2-7.5-26.5-7.5c-8.2,0-15.1,2-20.7,6C1346.2,132.9,1343.4,137.9,1343.4,143.8z"/>
	<path class="st0" d="M1498.5,180.4c-8,0-15.2-1.7-21.8-5.1c-6.6-3.4-11.6-7.9-15.1-13.5h-0.9v15h-19.4V18.7h20.3v49.9l-0.9,15h0.9
		c3.5-5.6,8.6-10.1,15.1-13.5c6.6-3.4,13.8-5.1,21.8-5.1c14.3,0,26.4,5.6,36.2,16.8c10.2,11.3,15.2,25,15.2,40.9
		c0,16.1-5.1,29.7-15.2,40.9C1524.9,174.8,1512.8,180.4,1498.5,180.4z M1495.2,161.9c9.7,0,17.9-3.7,24.5-11
		c6.6-7.2,9.9-16.6,9.9-28.1c0-11.3-3.3-20.7-9.9-28.1c-6.6-7.4-14.8-11-24.5-11c-9.9,0-18.1,3.7-24.7,11
		c-6.5,7.4-9.7,16.7-9.7,28.1c0,11.5,3.2,20.9,9.7,28.3C1477.1,158.3,1485.3,161.9,1495.2,161.9z"/>
	<path class="st0" d="M1609.7,65.1c15,0,26.9,4,35.6,12c8.7,8,13,19,13,33v66.7h-19.4v-15h-0.9c-8.4,12.4-19.6,18.6-33.6,18.6
		c-11.9,0-21.9-3.5-29.9-10.6c-8-7.1-12-15.9-12-26.5c0-11.2,4.2-20.1,12.7-26.7c8.5-6.6,19.8-9.9,33.9-9.9c12.1,0,22,2.2,29.8,6.6
		v-4.6c0-7.1-2.8-13.1-8.4-18c-5.6-4.9-12.2-7.4-19.7-7.4c-11.3,0-20.3,4.8-27,14.4l-17.9-11.3C1575.8,72.2,1590.4,65.1,1609.7,65.1
		z M1583.4,143.8c0,5.3,2.2,9.7,6.7,13.3c4.5,3.5,9.8,5.3,15.8,5.3c8.5,0,16.2-3.2,22.9-9.5c6.7-6.3,10.1-13.8,10.1-22.3
		c-6.3-5-15.2-7.5-26.5-7.5c-8.2,0-15.1,2-20.7,6C1586.1,132.9,1583.4,137.9,1583.4,143.8z"/>
	<path class="st0" d="M1725.4,180.4c-14.1,0-26.3-5.6-36.5-16.8c-10-11.3-15-25-15-40.9s5-29.5,15-40.9
		c10.2-11.2,22.3-16.8,36.5-16.8c8,0,15.2,1.7,21.8,5.1c6.6,3.4,11.6,7.9,15.1,13.5h0.9l-0.9-15V18.7h20.3v158.2h-19.4v-15h-0.9
		c-3.5,5.6-8.6,10.1-15.1,13.5C1740.6,178.7,1733.4,180.4,1725.4,180.4z M1728.7,161.9c10,0,18.2-3.6,24.5-10.8
		c6.6-7.2,9.9-16.6,9.9-28.3c0-11.3-3.3-20.7-9.9-28.1c-6.5-7.4-14.7-11-24.5-11c-9.7,0-17.9,3.7-24.5,11
		c-6.6,7.4-9.9,16.7-9.9,28.1c0,11.5,3.3,20.8,9.9,28.1C1710.8,158.2,1719,161.9,1728.7,161.9z"/>
</g>
<g id="XMLID_261_">
	<path id="XMLID_259_" class="st0" d="M32.3,0H0l92.3,160l16.2-28L32.3,0z"/>
	<path id="XMLID_258_" class="st0" d="M120.9,91L68.3,0H36.1l74.3,128.8l10.5-18.2c1.7-2.8,2.8-6.2,2.8-9.8
		C123.6,97.2,122.6,93.9,120.9,91L120.9,91z"/>
	<path id="XMLID_257_" class="st0" d="M56.3,104.1L0.9,200h32.3l39.3-68L56.3,104.1z"/>
	<path id="XMLID_256_" class="st0" d="M74.3,135.3L37,200h32.2l21.3-36.8L74.3,135.3L74.3,135.3z"/>
</g>
</svg>
